<svg xmlns="http://www.w3.org/2000/svg" xmlns:xlink="http://www.w3.org/1999/xlink" viewBox="-16556 12475 54 54">
  <defs>
    <style>
      .cls-1, .cls-17, .cls-2 {
        opacity: 0.8;
      }

      .cls-2 {
        fill: #30cc8a;
      }

      .cls-3 {
        clip-path: url(#clip-path);
      }

      .cls-4 {
        fill: #7579a3;
      }

      .cls-5 {
        fill: #b2b2b2;
      }

      .cls-17, .cls-6 {
        fill: #fff;
      }

      .cls-7, .cls-8, .cls-9 {
        fill: #5e5884;
      }

      .cls-7 {
        opacity: 0.3;
      }

      .cls-8 {
        opacity: 0.2;
      }

      .cls-10 {
        fill: #666a99;
      }

      .cls-11 {
        fill: #e1c081;
      }

      .cls-12, .cls-15 {
        fill: #c6c7c7;
      }

      .cls-12 {
        opacity: 0.4;
      }

      .cls-13 {
        fill: #a0774b;
      }

      .cls-14 {
        clip-path: url(#clip-path-2);
      }

      .cls-16 {
        fill: #9c754a;
      }

      .cls-18 {
        fill: #3b4f5b;
      }

      .cls-19 {
        fill: #a3a6c9;
        opacity: 0.45;
      }
    </style>
    <clipPath id="clip-path">
      <path id="パス_107" data-name="パス 107" class="cls-1" d="M35.3,54h0a26.993,26.993,0,0,1-27-27h0a26.993,26.993,0,0,1,27-27h0a26.993,26.993,0,0,1,27,27h0A26.993,26.993,0,0,1,35.3,54Z" transform="translate(-8.3)"/>
    </clipPath>
    <clipPath id="clip-path-2">
      <path id="パス_88" data-name="パス 88" d="M41.583,42.4c-8.168,0-14.783,2.43-14.783,9.855s6.615,8.167,14.782,8.167,14.783-.675,14.783-8.167S49.75,42.4,41.583,42.4Z" transform="translate(-26.8 -42.4)"/>
    </clipPath>
  </defs>
  <g id="シンボル_62_2" data-name="シンボル 62 – 2" transform="translate(-16696 9846)">
    <g id="グループ化_137" data-name="グループ化 137" transform="translate(131.7 2629)">
      <path id="パス_63" data-name="パス 63" class="cls-2" d="M35.3,54h0a26.993,26.993,0,0,1-27-27h0a26.993,26.993,0,0,1,27-27h0a26.993,26.993,0,0,1,27,27h0A26.993,26.993,0,0,1,35.3,54Z"/>
      <g id="グループ化_136" data-name="グループ化 136" class="cls-3" transform="translate(8.3)">
        <g id="グループ化_128" data-name="グループ化 128" transform="translate(14.655 38.659)">
          <path id="パス_64" data-name="パス 64" class="cls-4" d="M53.359,59.249c-3.24-2.768-17.145-2.5-20.858,0-5.6,3.78,0,21.532,0,21.532h0c0,.068.068.2.068.27l1.08,3.24.27.742c.81,2.43,2.16,2.43,2.97,0l.27-.742a14.453,14.453,0,0,1,1.08-2.3c.54-.675,9.315-.945,9.653,0,.27.945,1.08,3.038,1.08,3.038.81,2.43,2.16,2.43,2.97,0l.27-.742,1.08-3.308c0-.067.068-.135.068-.2h0S58.354,63.434,53.359,59.249Z" transform="translate(-30.011 -57.273)"/>
          <path id="パス_65" data-name="パス 65" class="cls-5" d="M59.715,98.8c-.472,0-.945,0-1.215.338.743,1.552,1.688,1.552,2.43.067C60.728,98.8,60.255,98.8,59.715,98.8Z" transform="translate(-39.27 -70.769)"/>
          <path id="パス_66" data-name="パス 66" class="cls-5" d="M37.415,98.8c-.472,0-.945,0-1.215.338.742,1.552,1.688,1.552,2.43.067C38.36,98.8,37.955,98.8,37.415,98.8Z" transform="translate(-32.022 -70.769)"/>
          <path id="パス_67" data-name="パス 67" class="cls-6" d="M52.5,70.05c0,3.713-6.75,6.75-6.75,6.75S39,73.763,39,70.05s1.35-6.75,6.75-6.75C51.42,63.3,52.5,66.27,52.5,70.05Z" transform="translate(-32.932 -59.232)"/>
          <path id="パス_68" data-name="パス 68" class="cls-7" d="M55.412,70.77c0,1.147-5.737,4.792-12.825,4.792S30.1,72.457,30.1,71.31s5.4-.27,12.487-.27S55.412,69.555,55.412,70.77Z" transform="translate(-30.04 -61.504)"/>
          <path id="パス_69" data-name="パス 69" class="cls-4" d="M45.838,79.475c.2-.135.945-.675,1.823-1.283,1.688-1.147,5.2-3.847,5.737-4.32L53.06,73.4c-.54.473-4.05,3.172-5.67,4.253-.945.607-1.62,1.147-1.89,1.283Z" transform="translate(-35.045 -62.514)"/>
          <path id="パス_70" data-name="パス 70" class="cls-4" d="M41.238,77.728c.2-.135.945-.675,1.823-1.283,1.688-1.147,3.915-2.7,4.522-3.173l-.337-.472c-.54.472-2.835,2.025-4.455,3.172-.945.608-1.62,1.147-1.89,1.283Z" transform="translate(-33.55 -62.319)"/>
          <path id="パス_71" data-name="パス 71" class="cls-4" d="M48.86,79.475c-.2-.135-.945-.675-1.822-1.283-1.687-1.147-5.2-3.847-5.738-4.32l.337-.473c.54.473,4.05,3.172,5.67,4.253.945.607,1.62,1.147,1.89,1.283Z" transform="translate(-33.68 -62.514)"/>
          <path id="パス_72" data-name="パス 72" class="cls-4" d="M54.045,77.728c-.2-.135-.945-.675-1.822-1.283-1.687-1.147-3.915-2.7-4.523-3.173l.338-.472c.54.472,2.835,2.025,4.455,3.172.945.608,1.62,1.147,1.89,1.283Z" transform="translate(-35.76 -62.319)"/>
          <path id="パス_73" data-name="パス 73" class="cls-8" d="M61.9,82.547a2,2,0,0,0,.2-.27c.135-.135.27-.405.473-.675a2.935,2.935,0,0,0,.27-.472,4.009,4.009,0,0,0,.27-.54,8.789,8.789,0,0,0,.54-1.148c.067-.2.2-.4.27-.607l.2-.608a4.652,4.652,0,0,1,.2-.54c.068-.2.068-.337.135-.54a1.149,1.149,0,0,0,.067-.473,2.923,2.923,0,0,1,.067-.337V76a1.181,1.181,0,0,0,.068.338,3.873,3.873,0,0,1-.068.81c0,.135-.067.337-.067.54-.067.2-.067.405-.135.608-.135.4-.27.81-.473,1.283-.067.2-.2.4-.27.607a2.735,2.735,0,0,1-.338.607,11.45,11.45,0,0,1-.675.945c-.135.135-.2.27-.27.338-.067.135-.2.2-.27.27A.5.5,0,0,0,61.9,82.547Z" transform="translate(-40.375 -63.359)"/>
          <path id="パス_74" data-name="パス 74" class="cls-8" d="M58.2,82.18a3.446,3.446,0,0,1,.067-.607c.067-.337.2-.878.27-1.35.135-.472.27-.945.338-1.283.067-.2.067-.338.135-.4,0-.135.067-.135.067-.135a3.446,3.446,0,0,1-.067.608c-.067.338-.135.878-.27,1.35s-.27.945-.4,1.283A1.039,1.039,0,0,1,58.2,82.18Z" transform="translate(-39.173 -64.139)"/>
          <path id="パス_75" data-name="パス 75" class="cls-5" d="M60.1,85.632a1.218,1.218,0,0,1-1.62.338c-.54-.338-.54-.945-.338-1.62.2-.608,1.08-.2,1.62.135C60.3,84.889,60.57,85.227,60.1,85.632Z" transform="translate(-39.113 -65.971)"/>
          <path id="パス_76" data-name="パス 76" class="cls-8" d="M35.268,82.547l-.2-.2-.27-.27c-.068-.135-.2-.2-.27-.338-.2-.27-.4-.608-.675-.945-.135-.2-.2-.4-.337-.608-.068-.2-.2-.4-.27-.607a7.2,7.2,0,0,1-.472-1.283,1.971,1.971,0,0,1-.135-.608,1.677,1.677,0,0,1-.068-.54,3.874,3.874,0,0,1-.067-.81A.819.819,0,0,1,32.567,76v.338a.734.734,0,0,0,.068.338c0,.135.068.27.068.472.067.135.067.338.135.54a4.651,4.651,0,0,0,.2.54l.2.608a2.4,2.4,0,0,0,.27.607c.2.4.4.81.54,1.148a2.021,2.021,0,0,1,.27.54c.068.135.2.338.27.473.2.27.337.54.473.675A1.165,1.165,0,0,1,35.268,82.547Z" transform="translate(-30.82 -63.359)"/>
          <path id="パス_77" data-name="パス 77" class="cls-8" d="M39.878,82.148l-.2-.608c-.135-.337-.27-.81-.4-1.283a11.918,11.918,0,0,1-.27-1.35V78.3a.209.209,0,0,0,.068.135.959.959,0,0,0,.135.4c.067.337.2.81.337,1.283a11.92,11.92,0,0,1,.27,1.35A4.546,4.546,0,0,1,39.878,82.148Z" transform="translate(-32.932 -64.107)"/>
          <path id="パス_78" data-name="パス 78" class="cls-5" d="M37.283,85.632a1.218,1.218,0,0,0,1.62.338c.54-.338.54-.945.337-1.62-.2-.608-1.08-.2-1.62.135C37.08,84.889,36.81,85.227,37.283,85.632Z" transform="translate(-32.295 -65.971)"/>
        </g>
        <g id="グループ化_129" data-name="グループ化 129" transform="translate(-5.602 39.012)">
          <path id="パス_79" data-name="パス 79" class="cls-9" d="M32.8,63.881c3.1,1.62-16.74-7.762-32.8,3.577,5.738.068,9.788,1.147,10.53,2.092.675.945,4.253,1.755,6.48.068S31.455,63.138,32.8,63.881Z" transform="translate(0 -59.085)"/>
          <path id="パス_80" data-name="パス 80" class="cls-7" d="M33.13,57.8c2.97.4-17.888,1.553-24.03,9.18a29.4,29.4,0,0,0-5.4,6.008c5.4-1.957,9.585-2.7,10.53-2.025,1.012.607,4.59.135,6.142-2.228C21.858,66.371,31.578,57.6,33.13,57.8Z" transform="translate(-1.203 -57.795)"/>
          <path id="パス_81" data-name="パス 81" class="cls-10" d="M33.13,58.3c3.51.472-18.36-1.35-29.43,14.918,5.4-1.958,9.585-2.363,10.6-1.755s4.59.135,6.143-2.228C21.925,66.871,31.645,58.1,33.13,58.3Z" transform="translate(-1.203 -57.957)"/>
        </g>
        <path id="パス_82" data-name="パス 82" class="cls-4" d="M63.317,25c-6.615-8.1-18.292-10.26-25.582-9.652-4.388.4-8.235,1.08-11.678,3.1-3.915-3.172-9.99-4.792-10.53-3.712-.675,1.35,1.012,8.235,2.767,11.948a28.291,28.291,0,0,0-2.16,11.2c.2,12.825,9.787,17.28,21.6,17.28,12.15,0,21.8-4.792,21.667-17.28a28.862,28.862,0,0,0-1.553-9.247C61.427,27.564,63.857,25.674,63.317,25Z" transform="translate(-10.599 -4.682)"/>
        <path id="パス_83" data-name="パス 83" class="cls-11" d="M41.55,42.4c-8.167,0-14.85,2.43-14.85,9.855,0,7.493,6.615,8.167,14.85,8.167,8.167,0,14.85-.742,14.85-8.167S49.718,42.4,41.55,42.4Z" transform="translate(-14.28 -13.78)"/>
        <path id="パス_84" data-name="パス 84" class="cls-12" d="M52.51,61.85c0,1.89-2.16,2.9-5.805,2.9s-5.8-1.013-5.8-2.9,2.16-4.05,5.8-4.05S52.51,59.892,52.51,61.85Z" transform="translate(-18.895 -18.785)"/>
        <path id="パス_85" data-name="パス 85" class="cls-6" d="M52.38,61.185c0,1.958-2.228,2.97-5.94,2.97s-5.94-1.013-5.94-2.97S42.727,57,46.44,57,52.38,59.227,52.38,61.185Z" transform="translate(-18.765 -18.525)"/>
        <path id="パス_86" data-name="パス 86" class="cls-13" d="M50.005,60.675c0,.54-.675,1.012-1.553,1.012S46.9,61.215,46.9,60.675,47.575,60,48.453,60,50.005,60.135,50.005,60.675Z" transform="translate(-20.845 -19.5)"/>
        <g id="グループ化_132" data-name="グループ化 132" transform="translate(12.487 28.62)">
          <g id="グループ化_130" data-name="グループ化 130" class="cls-14">
            <path id="パス_87" data-name="パス 87" class="cls-15" d="M55.98,48.087a71.368,71.368,0,0,0-18.427-2.092c-11.543,0-18.428,2.092-18.428,2.092A4.427,4.427,0,0,1,14.4,43.5h0a4.985,4.985,0,0,1,4.725-5.2H55.98a4.943,4.943,0,0,1,4.725,5.2h0A4.427,4.427,0,0,1,55.98,48.087Z" transform="translate(-22.77 -41.068)"/>
          </g>
          <g id="グループ化_131" data-name="グループ化 131" class="cls-14">
            <path id="パス_89" data-name="パス 89" class="cls-15" d="M55.98,48.295s-7.088-3.1-18.427-3.1c-11.543,0-18.428,3.1-18.428,3.1A4.943,4.943,0,0,1,14.4,43.1h0a4.985,4.985,0,0,1,4.725-5.2H55.98a4.943,4.943,0,0,1,4.725,5.2h0A4.943,4.943,0,0,1,55.98,48.295Z" transform="translate(-22.77 -40.938)"/>
          </g>
        </g>
        <path id="パス_229" data-name="パス 229" class="cls-6" d="M.035.035H5.3V5.3H.035Z" transform="translate(27.57 32.501) rotate(-135)"/>
        <g id="グループ化_133" data-name="グループ化 133" transform="translate(24.139 42.12)">
          <path id="パス_91" data-name="パス 91" class="cls-16" d="M44.627,62.535a.209.209,0,0,0,.067.135l.067.068.135.135c.067.068.135.068.2.135s.135.067.27.135a1.971,1.971,0,0,0,.608.135h.472c.067,0,.067,0,.135-.067.067,0,.135-.067.27-.135.068-.068.135-.068.2-.135s.068-.135.135-.135c.067-.067.067-.067.067-.135a.209.209,0,0,0,.068-.135h0c.068-.067.135-.135.27-.067.067.067.135.135.067.27a.209.209,0,0,1-.067.135.145.145,0,0,1-.135.135l-.2.2a.932.932,0,0,1-.27.2.516.516,0,0,1-.338.135c-.067,0-.135.067-.2.067h-.607a2.87,2.87,0,0,1-.742-.135c-.135-.067-.2-.067-.338-.135a.512.512,0,0,0-.27-.135l-.2-.2c-.068-.067-.135-.135-.135-.2a.209.209,0,0,1-.067-.135h0c-.068-.068,0-.2.135-.27.27,0,.4.068.4.135Z" transform="translate(-44.061 -62.4)"/>
          <path id="パス_92" data-name="パス 92" class="cls-16" d="M52.31,62.738a.209.209,0,0,1-.068.135c-.068.067-.068.135-.135.2l-.2.2a.351.351,0,0,1-.27.135c-.068.067-.2.067-.338.135a2.427,2.427,0,0,1-.743.135h-.607c-.068,0-.135-.067-.2-.067-.135,0-.2-.135-.337-.135-.068-.067-.2-.135-.27-.2l-.2-.2c-.068-.067-.068-.135-.135-.135l.135-.2c-.068-.068,0-.2.067-.27s.2,0,.27.068h0a.209.209,0,0,0,.068.135c0,.067.068.067.068.135l.135.135c.068.068.135.068.2.135s.135.068.27.135c.067,0,.067,0,.135.068h.472a1.971,1.971,0,0,0,.608-.135c.067-.068.2-.068.27-.135s.135-.068.2-.135.135-.067.135-.135l.068-.067a.209.209,0,0,0,.067-.135.351.351,0,0,1,.27-.135.506.506,0,0,1,.068.338Z" transform="translate(-45.601 -62.4)"/>
        </g>
        <path id="パス_93" data-name="パス 93" class="cls-17" d="M36.607,51.313c.135,1.215-.675.742-1.417.675-.675,0-1.485-.067-1.215-.81a1.282,1.282,0,0,1,1.283-.877A1.409,1.409,0,0,1,36.607,51.313Z" transform="translate(-16.627 -16.347)"/>
        <path id="パス_94" data-name="パス 94" class="cls-17" d="M59.393,51.274c-.135,1.215.675.742,1.35.742s1.485,0,1.283-.742a1.209,1.209,0,0,0-1.283-.878A1.194,1.194,0,0,0,59.393,51.274Z" transform="translate(-24.9 -16.377)"/>
        <g id="グループ化_134" data-name="グループ化 134" transform="translate(17.212 36.923)">
          <path id="パス_95" data-name="パス 95" class="cls-18" d="M37.04,56.185a1.62,1.62,0,1,1-3.24,0,1.626,1.626,0,0,1,3.24,0Z" transform="translate(-33.8 -54.7)"/>
          <path id="パス_96" data-name="パス 96" class="cls-6" d="M37.045,56.373a.473.473,0,1,1-.472-.473A.461.461,0,0,1,37.045,56.373Z" transform="translate(-34.547 -55.09)"/>
          <path id="パス_97" data-name="パス 97" class="cls-6" d="M35.705,57.6a.2.2,0,1,1-.2-.2A.216.216,0,0,1,35.705,57.6Z" transform="translate(-34.287 -55.578)"/>
        </g>
        <g id="グループ化_135" data-name="グループ化 135" transform="translate(34.29 36.923)">
          <path id="パス_98" data-name="パス 98" class="cls-18" d="M59.1,56.185a1.62,1.62,0,1,0,3.24,0A1.531,1.531,0,0,0,60.72,54.7,1.492,1.492,0,0,0,59.1,56.185Z" transform="translate(-59.1 -54.7)"/>
          <path id="パス_99" data-name="パス 99" class="cls-6" d="M60.2,56.373a.472.472,0,1,0,.472-.473A.461.461,0,0,0,60.2,56.373Z" transform="translate(-59.458 -55.09)"/>
          <path id="パス_100" data-name="パス 100" class="cls-6" d="M61.8,57.6a.2.2,0,1,0,.2-.2A.216.216,0,0,0,61.8,57.6Z" transform="translate(-59.978 -55.578)"/>
        </g>
        <path id="パス_101" data-name="パス 101" class="cls-19" d="M49.2,37l3.713,3.713L49.2,44.492Z" transform="translate(-21.593 -12.025)"/>
        <path id="パス_102" data-name="パス 102" class="cls-4" d="M73.535,68.292c-3.78-.2-5.265,1.485-5.805,2.565a3.974,3.974,0,0,0-.675,2.295,4.091,4.091,0,0,0,4.118,4.117,4.239,4.239,0,0,0,2.97-1.215c-.067.135-.067.27-.135.4a.512.512,0,0,0-.135.27.236.236,0,0,0-.067.135c0,.068-.135.135-.135.2a2.522,2.522,0,0,1-.4.472,3.952,3.952,0,0,1-1.147.675,7.964,7.964,0,0,1-1.35.27,2.3,2.3,0,0,1-.675-.068.609.609,0,0,1-.338-.067c-.135,0-.2-.068-.337-.068l-.607-.2c-.2-.067-.338-.135-.54-.2a9.039,9.039,0,0,1-.81-.4c-.27-.135-1.755-1.215-1.755-1.215-.608-.4-.472.27-1.013.81a1.57,1.57,0,0,0,0,2.16h0l.2.2.54.54a8.471,8.471,0,0,0,1.147.878,7.116,7.116,0,0,0,.743.472c.27.135.54.27.878.4.135.067.337.135.472.2a1.589,1.589,0,0,0,.54.135c.337.135.742.135,1.147.27a10.97,10.97,0,0,0,2.565-.067,7.37,7.37,0,0,0,2.7-1.012c.2-.135.4-.27.675-.472l.338-.27.27-.27.2-.2.27-.338a3.709,3.709,0,0,0,.473-.607,5.814,5.814,0,0,0,1.215-2.97C79.745,70.654,75.9,68.427,73.535,68.292Z" transform="translate(-26.488 -22.189)"/>
        <path id="パス_103" data-name="パス 103" class="cls-7" d="M73.155,87.048a8.31,8.31,0,0,1-4.86-.81A13.286,13.286,0,0,1,66,84.685c.135-.743.2-1.013.27-1.485A7.071,7.071,0,0,0,73.155,87.048Z" transform="translate(-27.053 -27.04)"/>
        <path id="パス_104" data-name="パス 104" class="cls-7" d="M74.635,75.248A1.982,1.982,0,0,1,77.943,77,3.475,3.475,0,0,1,74.5,79.365a3.211,3.211,0,0,0,2.9-2.43C77.538,76.26,76.93,74.708,74.635,75.248Z" transform="translate(-29.815 -24.285)"/>
        <path id="パス_105" data-name="パス 105" class="cls-8" d="M19.4,32.458a1.446,1.446,0,0,1,.068-.4.516.516,0,0,1,.135-.338c0-.068.068-.135.068-.2.067-.067.067-.135.135-.2a1.472,1.472,0,0,1,.27-.337c.068-.135.2-.2.27-.27a3.506,3.506,0,0,1,.337-.2h0a3.507,3.507,0,0,1-.2.337,4.1,4.1,0,0,1-.472.675,2.908,2.908,0,0,1-.472.675c0,.135-.067.27-.135.27Z" transform="translate(-11.908 -9.913)"/>
        <path id="パス_106" data-name="パス 106" class="cls-8" d="M82.653,31.075c-.135.068-.2.27-.337.338-.338.2-.608.472-1.013.743a5.936,5.936,0,0,1-.675.4,2.5,2.5,0,0,1-.743.337,7.914,7.914,0,0,1-1.62.608,13.288,13.288,0,0,0-1.283.472c-.2.068-.337.135-.54.2-.135.068-.27.068-.4.135a.51.51,0,0,1-.27.067h0c.067,0,.135-.067.27-.067a4.638,4.638,0,0,0,.877-.405c.743-.337,1.823-.675,2.768-1.147s1.552-.81,2.228-1.215A4.493,4.493,0,0,0,83.058,30.4a.819.819,0,0,1-.067.338A1.52,1.52,0,0,1,82.653,31.075Z" transform="translate(-30.205 -9.88)"/>
      </g>
    </g>
  </g>
</svg>
